STARTFONT 2.1
COMMENT  
COMMENT  WARNING:  This bdf file was generated from an X server using
COMMENT  xbdfdump.  The resulting font is subject to the same copyright,
COMMENT  license, and trademark restrictions as the original font.  The
COMMENT  author and distributors of xbdfdump disclaim all liability for
COMMENT  misuse of the program or its output.
COMMENT  
FONT -Phaisarn-ThaiMedia-Medium-R-Normal--18-180-72-72-C-120-tis620-0
SIZE 18 72 72
FONTBOUNDINGBOX 16 18 -8 -3
STARTPROPERTIES 24
FOUNDRY "Phaisarn"
FAMILY_NAME "ThaiMedia"
WEIGHT_NAME "Medium"
SLANT "R"
SETWIDTH_NAME "Normal"
ADD_STYLE_NAME ""
PIXEL_SIZE 18
POINT_SIZE 180
RESOLUTION_X 72
RESOLUTION_Y 72
SPACING "C"
AVERAGE_WIDTH 120
CHARSET_REGISTRY "tis620"
CHARSET_ENCODING "0"
STRIKEOUT_ASCENT 16
STRIKEOUT_DESCENT 3
X_HEIGHT 9
FACE_NAME "ThaiMedia"
COPYRIGHT "by Phaisarn Techajaruwong, Pt TITech 1997"
WEIGHT 10
QUAD_WIDTH 8
DEFAULT_CHAR 32
FONT_ASCENT 16
FONT_DESCENT 3
ENDPROPERTIES
CHARS 183
STARTCHAR space
ENCODING 32
SWIDTH 444 0
DWIDTH 8 0
BBX 8 16 0 -2
BITMAP
00
00
00
00
00
00
00
00
00
00
00
00
00
00
00
00
ENDCHAR
STARTCHAR exclam
ENCODING 33
SWIDTH 444 0
DWIDTH 8 0
BBX 8 16 0 -2
BITMAP
00
00
00
00
00
08
08
08
08
08
08
00
08
08
00
00
ENDCHAR
STARTCHAR quotedbl
ENCODING 34
SWIDTH 444 0
DWIDTH 8 0
BBX 8 16 0 -2
BITMAP
00
00
00
00
00
24
24
24
00
00
00
00
00
00
00
00
ENDCHAR
STARTCHAR numbersign
ENCODING 35
SWIDTH 444 0
DWIDTH 8 0
BBX 8 16 0 -2
BITMAP
00
00
00
00
00
24
24
7e
24
24
24
7e
24
24
00
00
ENDCHAR
STARTCHAR dollar
ENCODING 36
SWIDTH 444 0
DWIDTH 8 0
BBX 8 16 0 -2
BITMAP
00
00
00
00
08
08
3e
48
48
3c
12
12
7c
10
10
00
ENDCHAR
STARTCHAR percent
ENCODING 37
SWIDTH 444 0
DWIDTH 8 0
BBX 8 16 0 -2
BITMAP
00
00
00
00
00
00
00
62
66
0c
18
30
66
46
00
00
ENDCHAR
STARTCHAR ampersand
ENCODING 38
SWIDTH 444 0
DWIDTH 8 0
BBX 8 16 0 -2
BITMAP
00
00
00
00
00
18
24
24
18
31
4a
44
44
3b
00
00
ENDCHAR
STARTCHAR apostrophe
ENCODING 39
SWIDTH 444 0
DWIDTH 8 0
BBX 8 16 0 -2
BITMAP
00
00
00
00
00
08
08
10
00
00
00
00
00
00
00
00
ENDCHAR
STARTCHAR parenleft
ENCODING 40
SWIDTH 444 0
DWIDTH 8 0
BBX 8 16 0 -2
BITMAP
00
00
00
00
0c
10
10
20
20
20
20
20
10
10
0c
00
ENDCHAR
STARTCHAR parenright
ENCODING 41
SWIDTH 444 0
DWIDTH 8 0
BBX 8 16 0 -2
BITMAP
00
00
00
00
30
08
08
04
04
04
04
04
08
08
30
00
ENDCHAR
STARTCHAR asterisk
ENCODING 42
SWIDTH 444 0
DWIDTH 8 0
BBX 8 16 0 -2
BITMAP
00
00
00
00
00
00
00
66
3c
ff
3c
66
00
00
00
00
ENDCHAR
STARTCHAR plus
ENCODING 43
SWIDTH 444 0
DWIDTH 8 0
BBX 8 16 0 -2
BITMAP
00
00
00
00
00
00
00
10
10
7c
10
10
00
00
00
00
ENDCHAR
STARTCHAR comma
ENCODING 44
SWIDTH 444 0
DWIDTH 8 0
BBX 8 16 0 -2
BITMAP
00
00
00
00
00
00
00
00
00
00
00
00
18
18
08
10
ENDCHAR
STARTCHAR minus
ENCODING 45
SWIDTH 444 0
DWIDTH 8 0
BBX 8 16 0 -2
BITMAP
00
00
00
00
00
00
00
00
00
7e
00
00
00
00
00
00
ENDCHAR
STARTCHAR period
ENCODING 46
SWIDTH 444 0
DWIDTH 8 0
BBX 8 16 0 -2
BITMAP
00
00
00
00
00
00
00
00
00
00
00
00
18
18
00
00
ENDCHAR
STARTCHAR slash
ENCODING 47
SWIDTH 444 0
DWIDTH 8 0
BBX 8 16 0 -2
BITMAP
00
00
00
00
00
00
01
03
06
0c
18
30
60
40
00
00
ENDCHAR
STARTCHAR 0
ENCODING 48
SWIDTH 444 0
DWIDTH 8 0
BBX 8 16 0 -2
BITMAP
00
00
00
00
00
3e
63
47
4d
49
59
71
63
3e
00
00
ENDCHAR
STARTCHAR 1
ENCODING 49
SWIDTH 444 0
DWIDTH 8 0
BBX 8 16 0 -2
BITMAP
00
00
00
00
08
18
38
08
08
08
08
08
08
3e
00
00
ENDCHAR
STARTCHAR 2
ENCODING 50
SWIDTH 444 0
DWIDTH 8 0
BBX 8 16 0 -2
BITMAP
00
00
00
00
00
3c
66
42
06
0c
18
30
62
7e
00
00
ENDCHAR
STARTCHAR 3
ENCODING 51
SWIDTH 444 0
DWIDTH 8 0
BBX 8 16 0 -2
BITMAP
00
00
00
00
00
3c
66
02
06
1c
06
02
66
3c
00
00
ENDCHAR
STARTCHAR 4
ENCODING 52
SWIDTH 444 0
DWIDTH 8 0
BBX 8 16 0 -2
BITMAP
00
00
00
00
00
06
0e
1a
32
62
7f
02
02
07
00
00
ENDCHAR
STARTCHAR 5
ENCODING 53
SWIDTH 444 0
DWIDTH 8 0
BBX 8 16 0 -2
BITMAP
00
00
00
00
00
7e
40
40
7c
06
02
02
66
3c
00
00
ENDCHAR
STARTCHAR 6
ENCODING 54
SWIDTH 444 0
DWIDTH 8 0
BBX 8 16 0 -2
BITMAP
00
00
00
00
00
1c
30
60
40
5c
66
42
66
3c
00
00
ENDCHAR
STARTCHAR 7
ENCODING 55
SWIDTH 444 0
DWIDTH 8 0
BBX 8 16 0 -2
BITMAP
00
00
00
00
00
7f
41
43
06
0c
08
08
08
08
00
00
ENDCHAR
STARTCHAR 8
ENCODING 56
SWIDTH 444 0
DWIDTH 8 0
BBX 8 16 0 -2
BITMAP
00
00
00
00
00
3c
66
42
66
3c
66
42
66
3c
00
00
ENDCHAR
STARTCHAR 9
ENCODING 57
SWIDTH 444 0
DWIDTH 8 0
BBX 8 16 0 -2
BITMAP
00
00
00
00
00
3c
66
42
62
3e
02
04
0c
38
00
00
ENDCHAR
STARTCHAR colon
ENCODING 58
SWIDTH 444 0
DWIDTH 8 0
BBX 8 16 0 -2
BITMAP
00
00
00
00
00
00
00
1c
1c
00
00
1c
1c
00
00
00
ENDCHAR
STARTCHAR semicolon
ENCODING 59
SWIDTH 444 0
DWIDTH 8 0
BBX 8 16 0 -2
BITMAP
00
00
00
00
00
00
00
1c
1c
00
00
1c
1c
0c
18
00
ENDCHAR
STARTCHAR less
ENCODING 60
SWIDTH 444 0
DWIDTH 8 0
BBX 8 16 0 -2
BITMAP
00
00
00
00
00
06
0c
18
30
60
30
18
0c
06
00
00
ENDCHAR
STARTCHAR equal
ENCODING 61
SWIDTH 444 0
DWIDTH 8 0
BBX 8 16 0 -2
BITMAP
00
00
00
00
00
00
00
00
7e
00
7e
00
00
00
00
00
ENDCHAR
STARTCHAR greater
ENCODING 62
SWIDTH 444 0
DWIDTH 8 0
BBX 8 16 0 -2
BITMAP
00
00
00
00
00
60
30
18
0c
06
0c
18
30
60
00
00
ENDCHAR
STARTCHAR question
ENCODING 63
SWIDTH 444 0
DWIDTH 8 0
BBX 8 16 0 -2
BITMAP
00
00
00
00
00
3c
66
42
0c
18
18
00
18
18
00
00
ENDCHAR
STARTCHAR at
ENCODING 64
SWIDTH 444 0
DWIDTH 8 0
BBX 8 16 0 -2
BITMAP
00
00
00
00
00
3e
63
4d
5b
53
56
4d
60
3e
00
00
ENDCHAR
STARTCHAR A
ENCODING 65
SWIDTH 444 0
DWIDTH 8 0
BBX 8 16 0 -2
BITMAP
00
00
00
00
00
18
24
42
42
7e
42
42
42
42
00
00
ENDCHAR
STARTCHAR B
ENCODING 66
SWIDTH 444 0
DWIDTH 8 0
BBX 8 16 0 -2
BITMAP
00
00
00
00
00
7e
23
21
23
3e
23
21
23
7e
00
00
ENDCHAR
STARTCHAR C
ENCODING 67
SWIDTH 444 0
DWIDTH 8 0
BBX 8 16 0 -2
BITMAP
00
00
00
00
00
1e
33
61
40
40
40
61
33
1e
00
00
ENDCHAR
STARTCHAR D
ENCODING 68
SWIDTH 444 0
DWIDTH 8 0
BBX 8 16 0 -2
BITMAP
00
00
00
00
00
7c
26
23
21
21
21
23
26
7c
00
00
ENDCHAR
STARTCHAR E
ENCODING 69
SWIDTH 444 0
DWIDTH 8 0
BBX 8 16 0 -2
BITMAP
00
00
00
00
00
7f
21
20
22
3e
22
20
21
7f
00
00
ENDCHAR
STARTCHAR F
ENCODING 70
SWIDTH 444 0
DWIDTH 8 0
BBX 8 16 0 -2
BITMAP
00
00
00
00
00
7f
21
21
22
3e
22
20
20
70
00
00
ENDCHAR
STARTCHAR G
ENCODING 71
SWIDTH 444 0
DWIDTH 8 0
BBX 8 16 0 -2
BITMAP
00
00
00
00
00
1e
33
63
40
47
41
61
33
1e
00
00
ENDCHAR
STARTCHAR H
ENCODING 72
SWIDTH 444 0
DWIDTH 8 0
BBX 8 16 0 -2
BITMAP
00
00
00
00
00
42
42
42
42
7e
42
42
42
42
00
00
ENDCHAR
STARTCHAR I
ENCODING 73
SWIDTH 444 0
DWIDTH 8 0
BBX 8 16 0 -2
BITMAP
00
00
00
00
00
1c
08
08
08
08
08
08
08
1c
00
00
ENDCHAR
STARTCHAR J
ENCODING 74
SWIDTH 444 0
DWIDTH 8 0
BBX 8 16 0 -2
BITMAP
00
00
00
00
00
0f
02
02
02
02
42
42
66
3c
00
00
ENDCHAR
STARTCHAR K
ENCODING 75
SWIDTH 444 0
DWIDTH 8 0
BBX 8 16 0 -2
BITMAP
00
00
00
00
00
73
22
24
28
38
24
22
23
71
00
00
ENDCHAR
STARTCHAR L
ENCODING 76
SWIDTH 444 0
DWIDTH 8 0
BBX 8 16 0 -2
BITMAP
00
00
00
00
00
78
20
20
20
20
21
21
23
7f
00
00
ENDCHAR
STARTCHAR M
ENCODING 77
SWIDTH 444 0
DWIDTH 8 0
BBX 8 16 0 -2
BITMAP
00
00
00
00
00
41
63
77
5d
49
41
41
41
41
00
00
ENDCHAR
STARTCHAR N
ENCODING 78
SWIDTH 444 0
DWIDTH 8 0
BBX 8 16 0 -2
BITMAP
00
00
00
00
00
41
61
71
59
4d
47
43
41
41
00
00
ENDCHAR
STARTCHAR O
ENCODING 79
SWIDTH 444 0
DWIDTH 8 0
BBX 8 16 0 -2
BITMAP
00
00
00
00
00
1c
36
63
41
41
41
63
36
1c
00
00
ENDCHAR
STARTCHAR P
ENCODING 80
SWIDTH 444 0
DWIDTH 8 0
BBX 8 16 0 -2
BITMAP
00
00
00
00
00
7e
23
21
23
3e
20
20
20
70
00
00
ENDCHAR
STARTCHAR Q
ENCODING 81
SWIDTH 444 0
DWIDTH 8 0
BBX 8 16 0 -2
BITMAP
00
00
00
00
00
3e
63
41
41
41
41
41
6b
3e
0c
06
ENDCHAR
STARTCHAR R
ENCODING 82
SWIDTH 444 0
DWIDTH 8 0
BBX 8 16 0 -2
BITMAP
00
00
00
00
00
7e
23
21
23
3c
26
22
23
73
00
00
ENDCHAR
STARTCHAR S
ENCODING 83
SWIDTH 444 0
DWIDTH 8 0
BBX 8 16 0 -2
BITMAP
00
00
00
00
00
3c
66
42
60
38
0c
42
66
3c
00
00
ENDCHAR
STARTCHAR T
ENCODING 84
SWIDTH 444 0
DWIDTH 8 0
BBX 8 16 0 -2
BITMAP
00
00
00
00
00
7f
49
08
08
08
08
08
08
1c
00
00
ENDCHAR
STARTCHAR U
ENCODING 85
SWIDTH 444 0
DWIDTH 8 0
BBX 8 16 0 -2
BITMAP
00
00
00
00
00
42
42
42
42
42
42
42
66
3c
00
00
ENDCHAR
STARTCHAR V
ENCODING 86
SWIDTH 444 0
DWIDTH 8 0
BBX 8 16 0 -2
BITMAP
00
00
00
00
00
42
42
42
42
42
42
66
3c
18
00
00
ENDCHAR
STARTCHAR W
ENCODING 87
SWIDTH 444 0
DWIDTH 8 0
BBX 8 16 0 -2
BITMAP
00
00
00
00
00
41
41
41
49
49
49
77
22
22
00
00
ENDCHAR
STARTCHAR X
ENCODING 88
SWIDTH 444 0
DWIDTH 8 0
BBX 8 16 0 -2
BITMAP
00
00
00
00
00
42
42
66
3c
18
3c
66
42
42
00
00
ENDCHAR
STARTCHAR Y
ENCODING 89
SWIDTH 444 0
DWIDTH 8 0
BBX 8 16 0 -2
BITMAP
00
00
00
00
00
42
42
42
66
3c
18
18
18
3c
00
00
ENDCHAR
STARTCHAR Z
ENCODING 90
SWIDTH 444 0
DWIDTH 8 0
BBX 8 16 0 -2
BITMAP
00
00
00
00
00
7f
63
44
0c
08
10
31
63
7f
00
00
ENDCHAR
STARTCHAR bracketleft
ENCODING 91
SWIDTH 444 0
DWIDTH 8 0
BBX 8 16 0 -2
BITMAP
00
00
00
00
00
38
20
20
20
20
20
20
20
38
00
00
ENDCHAR
STARTCHAR backslash
ENCODING 92
SWIDTH 444 0
DWIDTH 8 0
BBX 8 16 0 -2
BITMAP
00
00
00
00
00
00
40
60
30
18
0c
06
03
01
00
00
ENDCHAR
STARTCHAR bracketright
ENCODING 93
SWIDTH 444 0
DWIDTH 8 0
BBX 8 16 0 -2
BITMAP
00
00
00
00
00
1c
04
04
04
04
04
04
04
1c
00
00
ENDCHAR
STARTCHAR asciicircum
ENCODING 94
SWIDTH 444 0
DWIDTH 8 0
BBX 8 16 0 -2
BITMAP
00
00
00
00
08
1c
36
63
00
00
00
00
00
00
00
00
ENDCHAR
STARTCHAR underscore
ENCODING 95
SWIDTH 444 0
DWIDTH 8 0
BBX 8 16 0 -2
BITMAP
00
00
00
00
00
00
00
00
00
00
00
00
00
00
ff
00
ENDCHAR
STARTCHAR grave
ENCODING 96
SWIDTH 444 0
DWIDTH 8 0
BBX 8 16 0 -2
BITMAP
00
00
00
00
00
10
10
08
00
00
00
00
00
00
00
00
ENDCHAR
STARTCHAR a
ENCODING 97
SWIDTH 444 0
DWIDTH 8 0
BBX 8 16 0 -2
BITMAP
00
00
00
00
00
00
00
00
3c
02
3e
42
46
3b
00
00
ENDCHAR
STARTCHAR b
ENCODING 98
SWIDTH 444 0
DWIDTH 8 0
BBX 8 16 0 -2
BITMAP
00
00
00
00
00
60
20
20
2e
33
21
21
33
6e
00
00
ENDCHAR
STARTCHAR c
ENCODING 99
SWIDTH 444 0
DWIDTH 8 0
BBX 8 16 0 -2
BITMAP
00
00
00
00
00
00
00
00
3c
66
40
40
66
3c
00
00
ENDCHAR
STARTCHAR d
ENCODING 100
SWIDTH 444 0
DWIDTH 8 0
BBX 8 16 0 -2
BITMAP
00
00
00
00
00
0e
02
02
3a
66
42
42
66
3b
00
00
ENDCHAR
STARTCHAR e
ENCODING 101
SWIDTH 444 0
DWIDTH 8 0
BBX 8 16 0 -2
BITMAP
00
00
00
00
00
00
00
00
3c
42
7e
40
66
3c
00
00
ENDCHAR
STARTCHAR f
ENCODING 102
SWIDTH 444 0
DWIDTH 8 0
BBX 8 16 0 -2
BITMAP
00
00
00
00
18
2c
20
20
78
20
20
20
20
70
00
00
ENDCHAR
STARTCHAR g
ENCODING 103
SWIDTH 444 0
DWIDTH 8 0
BBX 8 16 0 -2
BITMAP
00
00
00
00
00
00
00
00
3b
66
42
66
3a
02
66
3c
ENDCHAR
STARTCHAR h
ENCODING 104
SWIDTH 444 0
DWIDTH 8 0
BBX 8 16 0 -2
BITMAP
00
00
00
00
00
60
20
20
26
2b
31
21
21
61
00
00
ENDCHAR
STARTCHAR i
ENCODING 105
SWIDTH 444 0
DWIDTH 8 0
BBX 8 16 0 -2
BITMAP
00
00
00
00
00
04
04
00
1c
04
04
04
04
1f
00
00
ENDCHAR
STARTCHAR j
ENCODING 106
SWIDTH 444 0
DWIDTH 8 0
BBX 8 16 0 -2
BITMAP
00
00
00
00
00
02
02
00
0e
02
02
02
02
42
66
3c
ENDCHAR
STARTCHAR k
ENCODING 107
SWIDTH 444 0
DWIDTH 8 0
BBX 8 16 0 -2
BITMAP
00
00
00
00
00
60
20
20
23
26
38
2c
22
73
00
00
ENDCHAR
STARTCHAR l
ENCODING 108
SWIDTH 444 0
DWIDTH 8 0
BBX 8 16 0 -2
BITMAP
00
00
00
00
00
38
08
08
08
08
08
08
08
3e
00
00
ENDCHAR
STARTCHAR m
ENCODING 109
SWIDTH 444 0
DWIDTH 8 0
BBX 8 16 0 -2
BITMAP
00
00
00
00
00
00
00
00
7e
49
49
49
49
41
00
00
ENDCHAR
STARTCHAR n
ENCODING 110
SWIDTH 444 0
DWIDTH 8 0
BBX 8 16 0 -2
BITMAP
00
00
00
00
00
00
00
00
5c
66
42
42
42
42
00
00
ENDCHAR
STARTCHAR o
ENCODING 111
SWIDTH 444 0
DWIDTH 8 0
BBX 8 16 0 -2
BITMAP
00
00
00
00
00
00
00
00
3c
66
42
42
66
3c
00
00
ENDCHAR
STARTCHAR p
ENCODING 112
SWIDTH 444 0
DWIDTH 8 0
BBX 8 16 0 -2
BITMAP
00
00
00
00
00
00
00
00
6e
33
21
21
33
2e
20
60
ENDCHAR
STARTCHAR q
ENCODING 113
SWIDTH 444 0
DWIDTH 8 0
BBX 8 16 0 -2
BITMAP
00
00
00
00
00
00
00
00
3b
66
42
42
66
3a
02
07
ENDCHAR
STARTCHAR r
ENCODING 114
SWIDTH 444 0
DWIDTH 8 0
BBX 8 16 0 -2
BITMAP
00
00
00
00
00
00
00
00
66
2b
33
20
20
70
00
00
ENDCHAR
STARTCHAR s
ENCODING 115
SWIDTH 444 0
DWIDTH 8 0
BBX 8 16 0 -2
BITMAP
00
00
00
00
00
00
00
00
3c
46
30
0c
62
3c
00
00
ENDCHAR
STARTCHAR t
ENCODING 116
SWIDTH 444 0
DWIDTH 8 0
BBX 8 16 0 -2
BITMAP
00
00
00
00
00
00
10
10
7c
10
10
10
16
0c
00
00
ENDCHAR
STARTCHAR u
ENCODING 117
SWIDTH 444 0
DWIDTH 8 0
BBX 8 16 0 -2
BITMAP
00
00
00
00
00
00
00
00
44
44
44
44
64
3a
00
00
ENDCHAR
STARTCHAR v
ENCODING 118
SWIDTH 444 0
DWIDTH 8 0
BBX 8 16 0 -2
BITMAP
00
00
00
00
00
00
00
00
42
42
42
66
3c
18
00
00
ENDCHAR
STARTCHAR w
ENCODING 119
SWIDTH 444 0
DWIDTH 8 0
BBX 8 16 0 -2
BITMAP
00
00
00
00
00
00
00
00
41
41
49
6b
3e
22
00
00
ENDCHAR
STARTCHAR x
ENCODING 120
SWIDTH 444 0
DWIDTH 8 0
BBX 8 16 0 -2
BITMAP
00
00
00
00
00
00
00
00
63
36
0c
18
36
63
00
00
ENDCHAR
STARTCHAR y
ENCODING 121
SWIDTH 444 0
DWIDTH 8 0
BBX 8 16 0 -2
BITMAP
00
00
00
00
00
00
00
00
21
21
21
33
1e
06
0c
38
ENDCHAR
STARTCHAR z
ENCODING 122
SWIDTH 444 0
DWIDTH 8 0
BBX 8 16 0 -2
BITMAP
00
00
00
00
00
00
00
00
7e
42
0c
30
42
7e
00
00
ENDCHAR
STARTCHAR braceleft
ENCODING 123
SWIDTH 444 0
DWIDTH 8 0
BBX 8 16 0 -2
BITMAP
00
00
00
00
0c
18
10
10
30
60
30
10
10
18
0c
00
ENDCHAR
STARTCHAR bar
ENCODING 124
SWIDTH 444 0
DWIDTH 8 0
BBX 8 16 0 -2
BITMAP
00
00
00
00
10
10
10
10
10
00
10
10
10
10
10
00
ENDCHAR
STARTCHAR braceright
ENCODING 125
SWIDTH 444 0
DWIDTH 8 0
BBX 8 16 0 -2
BITMAP
00
00
00
00
30
18
08
08
0c
06
0c
08
08
18
30
00
ENDCHAR
STARTCHAR asciitilde
ENCODING 126
SWIDTH 444 0
DWIDTH 8 0
BBX 8 16 0 -2
BITMAP
00
00
00
00
00
32
5a
4c
00
00
00
00
00
00
00
00
ENDCHAR
STARTCHAR exclamdown
ENCODING 161
SWIDTH 444 0
DWIDTH 8 0
BBX 8 8 0 0
BITMAP
3c
42
22
42
42
42
42
42
ENDCHAR
STARTCHAR cent
ENCODING 162
SWIDTH 444 0
DWIDTH 8 0
BBX 8 8 0 0
BITMAP
72
72
12
22
22
22
22
1c
ENDCHAR
STARTCHAR sterling
ENCODING 163
SWIDTH 444 0
DWIDTH 8 0
BBX 8 8 0 0
BITMAP
52
72
12
22
22
22
22
1c
ENDCHAR
STARTCHAR currency
ENCODING 164
SWIDTH 444 0
DWIDTH 8 0
BBX 8 8 0 0
BITMAP
3c
42
42
5a
7a
22
22
22
ENDCHAR
STARTCHAR yen
ENCODING 165
SWIDTH 444 0
DWIDTH 8 0
BBX 8 8 0 0
BITMAP
24
5a
42
5a
7a
22
22
22
ENDCHAR
STARTCHAR brokenbar
ENCODING 166
SWIDTH 444 0
DWIDTH 8 0
BBX 8 8 0 0
BITMAP
52
72
12
22
22
7a
66
22
ENDCHAR
STARTCHAR section
ENCODING 167
SWIDTH 444 0
DWIDTH 8 0
BBX 8 8 0 0
BITMAP
0c
0e
02
42
22
12
0a
06
ENDCHAR
STARTCHAR diaeresis
ENCODING 168
SWIDTH 444 0
DWIDTH 8 0
BBX 8 8 0 0
BITMAP
3c
42
02
32
3a
06
02
02
ENDCHAR
STARTCHAR copyright
ENCODING 169
SWIDTH 444 0
DWIDTH 8 0
BBX 8 8 0 0
BITMAP
3c
42
02
62
66
2b
33
22
ENDCHAR
STARTCHAR ordfeminine
ENCODING 170
SWIDTH 444 0
DWIDTH 8 0
BBX 8 10 0 0
BITMAP
00
02
72
74
12
22
22
22
22
1c
ENDCHAR
STARTCHAR guillemotleft
ENCODING 171
SWIDTH 444 0
DWIDTH 8 0
BBX 8 10 0 0
BITMAP
00
02
52
74
12
22
22
22
22
1c
ENDCHAR
STARTCHAR notsign
ENCODING 172
SWIDTH 444 0
DWIDTH 8 0
BBX 8 8 0 0
BITMAP
39
45
25
45
45
4d
6f
65
ENDCHAR
STARTCHAR hyphen
ENCODING 173
SWIDTH 444 0
DWIDTH 8 0
BBX 8 11 0 -3
BITMAP
39
45
25
45
45
45
65
67
00
05
06
ENDCHAR
STARTCHAR registered
ENCODING 174
SWIDTH 444 0
DWIDTH 8 0
BBX 8 11 0 -3
BITMAP
1e
21
11
21
21
21
61
61
09
3d
33
ENDCHAR
STARTCHAR macron
ENCODING 175
SWIDTH 444 0
DWIDTH 8 0
BBX 8 11 0 -3
BITMAP
1e
21
11
21
21
21
61
61
15
7f
69
ENDCHAR
STARTCHAR degree
ENCODING 176
SWIDTH 444 0
DWIDTH 8 0
BBX 8 11 0 -3
BITMAP
3d
42
7c
02
32
3a
06
02
2a
7e
66
ENDCHAR
STARTCHAR plusminus
ENCODING 177
SWIDTH 444 0
DWIDTH 8 0
BBX 8 8 0 0
BITMAP
52
75
29
29
31
31
21
21
ENDCHAR
STARTCHAR twosuperior
ENCODING 178
SWIDTH 444 0
DWIDTH 8 0
BBX 8 8 0 0
BITMAP
29
55
45
55
75
5d
6f
25
ENDCHAR
STARTCHAR threesuperior
ENCODING 179
SWIDTH 444 0
DWIDTH 8 0
BBX 8 8 0 0
BITMAP
39
45
25
45
45
46
67
65
ENDCHAR
STARTCHAR acute
ENCODING 180
SWIDTH 444 0
DWIDTH 8 0
BBX 8 8 0 0
BITMAP
3c
42
42
5a
5a
4a
32
22
ENDCHAR
STARTCHAR mu
ENCODING 181
SWIDTH 444 0
DWIDTH 8 0
BBX 8 8 0 0
BITMAP
24
5a
42
5a
5a
4a
32
22
ENDCHAR
STARTCHAR paragraph
ENCODING 182
SWIDTH 444 0
DWIDTH 8 0
BBX 8 8 0 0
BITMAP
3c
42
22
42
42
42
62
62
ENDCHAR
STARTCHAR periodcentered
ENCODING 183
SWIDTH 444 0
DWIDTH 8 0
BBX 8 8 0 0
BITMAP
62
65
29
29
31
31
21
21
ENDCHAR
STARTCHAR cedilla
ENCODING 184
SWIDTH 444 0
DWIDTH 8 0
BBX 8 8 0 0
BITMAP
3a
44
7c
22
22
22
22
3c
ENDCHAR
STARTCHAR onesuperior
ENCODING 185
SWIDTH 444 0
DWIDTH 8 0
BBX 8 8 0 0
BITMAP
62
62
22
22
26
2b
33
22
ENDCHAR
STARTCHAR masculine
ENCODING 186
SWIDTH 444 0
DWIDTH 8 0
BBX 8 8 0 0
BITMAP
61
61
21
21
21
21
21
3e
ENDCHAR
STARTCHAR guillemotright
ENCODING 187
SWIDTH 444 0
DWIDTH 8 0
BBX 8 11 0 0
BITMAP
01
01
01
61
61
21
21
21
21
21
3e
ENDCHAR
STARTCHAR onequarter
ENCODING 188
SWIDTH 444 0
DWIDTH 8 0
BBX 8 8 0 0
BITMAP
31
71
41
49
49
5d
77
22
ENDCHAR
STARTCHAR onehalf
ENCODING 189
SWIDTH 444 0
DWIDTH 8 0
BBX 8 11 0 0
BITMAP
01
01
01
31
71
41
49
49
5d
77
22
ENDCHAR
STARTCHAR threequarters
ENCODING 190
SWIDTH 444 0
DWIDTH 8 0
BBX 8 8 0 0
BITMAP
61
61
21
49
49
5d
77
22
ENDCHAR
STARTCHAR questiondown
ENCODING 191
SWIDTH 444 0
DWIDTH 8 0
BBX 8 11 0 0
BITMAP
01
01
01
61
61
21
49
49
5d
77
22
ENDCHAR
STARTCHAR Agrave
ENCODING 192
SWIDTH 444 0
DWIDTH 8 0
BBX 8 8 0 0
BITMAP
1e
21
11
21
21
21
61
61
ENDCHAR
STARTCHAR Aacute
ENCODING 193
SWIDTH 444 0
DWIDTH 8 0
BBX 8 8 0 0
BITMAP
61
61
21
21
39
65
63
21
ENDCHAR
STARTCHAR Acircumflex
ENCODING 194
SWIDTH 444 0
DWIDTH 8 0
BBX 8 8 0 0
BITMAP
32
72
42
32
42
42
42
7c
ENDCHAR
STARTCHAR Atilde
ENCODING 195
SWIDTH 444 0
DWIDTH 8 0
BBX 8 8 0 0
BITMAP
3a
44
7c
04
04
04
1c
18
ENDCHAR
STARTCHAR Adiaeresis
ENCODING 196
SWIDTH 444 0
DWIDTH 8 0
BBX 8 11 0 -3
BITMAP
3c
42
22
42
42
42
62
62
02
02
02
ENDCHAR
STARTCHAR Aring
ENCODING 197
SWIDTH 444 0
DWIDTH 8 0
BBX 8 8 0 0
BITMAP
3c
42
02
3a
46
42
62
62
ENDCHAR
STARTCHAR AE
ENCODING 198
SWIDTH 444 0
DWIDTH 8 0
BBX 8 11 0 -3
BITMAP
1e
21
11
21
21
21
61
61
01
01
01
ENDCHAR
STARTCHAR Ccedilla
ENCODING 199
SWIDTH 444 0
DWIDTH 8 0
BBX 8 8 0 0
BITMAP
3c
42
02
02
02
02
1a
1c
ENDCHAR
STARTCHAR Egrave
ENCODING 200
SWIDTH 444 0
DWIDTH 8 0
BBX 8 10 0 0
BITMAP
00
02
3c
46
4a
5a
7a
22
22
22
ENDCHAR
STARTCHAR Eacute
ENCODING 201
SWIDTH 444 0
DWIDTH 8 0
BBX 8 8 0 0
BITMAP
61
61
21
29
2f
21
21
3e
ENDCHAR
STARTCHAR Ecircumflex
ENCODING 202
SWIDTH 444 0
DWIDTH 8 0
BBX 8 9 0 0
BITMAP
02
3c
46
0a
3a
46
42
62
62
ENDCHAR
STARTCHAR Ediaeresis
ENCODING 203
SWIDTH 444 0
DWIDTH 8 0
BBX 8 8 0 0
BITMAP
63
63
26
29
31
31
21
21
ENDCHAR
STARTCHAR Igrave
ENCODING 204
SWIDTH 444 0
DWIDTH 8 0
BBX 8 9 0 0
BITMAP
01
66
67
21
49
49
5d
77
22
ENDCHAR
STARTCHAR Iacute
ENCODING 205
SWIDTH 444 0
DWIDTH 8 0
BBX 8 8 0 0
BITMAP
3c
42
02
32
72
42
42
7c
ENDCHAR
STARTCHAR Icircumflex
ENCODING 206
SWIDTH 444 0
DWIDTH 8 0
BBX 8 9 0 0
BITMAP
02
3c
7e
02
32
72
42
42
7c
ENDCHAR
STARTCHAR Idiaeresis
ENCODING 207
SWIDTH 444 0
DWIDTH 8 0
BBX 8 8 0 0
BITMAP
32
72
46
3a
02
02
02
0c
ENDCHAR
STARTCHAR ETH
ENCODING 208
SWIDTH 444 0
DWIDTH 8 0
BBX 8 7 0 0
BITMAP
32
62
3c
00
32
62
3c
ENDCHAR
STARTCHAR Ntilde
ENCODING 209
SWIDTH 0 0
DWIDTH 0 0
BBX 8 3 -8 9
BITMAP
32
62
3c
ENDCHAR
STARTCHAR Ograve
ENCODING 210
SWIDTH 444 0
DWIDTH 8 0
BBX 8 8 0 0
BITMAP
3c
42
02
02
02
02
02
02
ENDCHAR
STARTCHAR Oacute
ENCODING 211
SWIDTH 444 0
DWIDTH 8 0
BBX 16 12 -8 0
BITMAP
0800
1400
0800
0000
003c
0042
0002
0002
0002
0002
0002
0002
ENDCHAR
STARTCHAR Ocircumflex
ENCODING 212
SWIDTH 0 0
DWIDTH 0 0
BBX 8 3 -8 9
BITMAP
00
3c
7e
ENDCHAR
STARTCHAR Otilde
ENCODING 213
SWIDTH 0 0
DWIDTH 0 0
BBX 8 3 -8 9
BITMAP
02
3a
7e
ENDCHAR
STARTCHAR Odiaeresis
ENCODING 214
SWIDTH 0 0
DWIDTH 0 0
BBX 8 3 -8 9
BITMAP
04
3a
7c
ENDCHAR
STARTCHAR multiply
ENCODING 215
SWIDTH 0 0
DWIDTH 0 0
BBX 8 3 -8 9
BITMAP
0a
3a
7e
ENDCHAR
STARTCHAR Ooblique
ENCODING 216
SWIDTH 0 0
DWIDTH 0 0
BBX 8 2 -8 -3
BITMAP
0e
06
ENDCHAR
STARTCHAR Ugrave
ENCODING 217
SWIDTH 0 0
DWIDTH 0 0
BBX 8 2 -8 -3
BITMAP
36
1e
ENDCHAR
STARTCHAR Uacute
ENCODING 218
SWIDTH 0 0
DWIDTH 0 0
BBX 8 2 -8 -3
BITMAP
1c
1c
ENDCHAR
STARTCHAR Udiaeresis
ENCODING 220
SWIDTH 0 0
DWIDTH 0 0
BBX 8 2 -8 0
BITMAP
00
00
ENDCHAR
STARTCHAR ssharp
ENCODING 223
SWIDTH 444 0
DWIDTH 8 0
BBX 8 13 0 -2
BITMAP
08
08
7e
2b
29
2b
3e
2b
29
2b
7e
08
08
ENDCHAR
STARTCHAR agrave
ENCODING 224
SWIDTH 444 0
DWIDTH 8 0
BBX 8 8 0 0
BITMAP
10
10
10
10
10
10
18
18
ENDCHAR
STARTCHAR aacute
ENCODING 225
SWIDTH 444 0
DWIDTH 8 0
BBX 8 8 0 0
BITMAP
48
48
48
48
48
48
6c
6c
ENDCHAR
STARTCHAR acircumflex
ENCODING 226
SWIDTH 444 0
DWIDTH 8 0
BBX 8 12 0 0
BITMAP
3a
4c
78
08
08
08
08
08
08
08
0c
0c
ENDCHAR
STARTCHAR atilde
ENCODING 227
SWIDTH 444 0
DWIDTH 8 0
BBX 8 12 0 0
BITMAP
1c
22
3a
1a
04
04
04
04
04
04
06
06
ENDCHAR
STARTCHAR adiaeresis
ENCODING 228
SWIDTH 444 0
DWIDTH 8 0
BBX 8 12 0 0
BITMAP
44
2c
14
04
04
04
04
04
04
04
06
06
ENDCHAR
STARTCHAR aring
ENCODING 229
SWIDTH 444 0
DWIDTH 8 0
BBX 8 11 0 -3
BITMAP
3c
42
02
02
02
02
02
02
02
02
02
ENDCHAR
STARTCHAR ae
ENCODING 230
SWIDTH 444 0
DWIDTH 8 0
BBX 8 11 0 -2
BITMAP
24
5a
42
72
32
02
02
02
02
02
02
ENDCHAR
STARTCHAR ccedilla
ENCODING 231
SWIDTH 0 0
DWIDTH 0 0
BBX 8 4 -8 9
BITMAP
01
1e
28
16
ENDCHAR
STARTCHAR egrave
ENCODING 232
SWIDTH 0 0
DWIDTH 0 0
BBX 8 3 -8 12
BITMAP
04
04
04
ENDCHAR
STARTCHAR eacute
ENCODING 233
SWIDTH 0 0
DWIDTH 0 0
BBX 8 3 -8 12
BITMAP
19
0a
1c
ENDCHAR
STARTCHAR ecircumflex
ENCODING 234
SWIDTH 0 0
DWIDTH 0 0
BBX 8 3 -8 12
BITMAP
2a
56
64
ENDCHAR
STARTCHAR ediaeresis
ENCODING 235
SWIDTH 0 0
DWIDTH 0 0
BBX 8 3 -8 12
BITMAP
08
1c
08
ENDCHAR
STARTCHAR igrave
ENCODING 236
SWIDTH 0 0
DWIDTH 0 0
BBX 8 3 -8 12
BITMAP
07
0c
0c
ENDCHAR
STARTCHAR iacute
ENCODING 237
SWIDTH 0 0
DWIDTH 0 0
BBX 8 3 -8 9
BITMAP
08
14
08
ENDCHAR
STARTCHAR icircumflex
ENCODING 238
SWIDTH 0 0
DWIDTH 0 0
BBX 8 4 -8 9
BITMAP
04
1a
28
30
ENDCHAR
STARTCHAR idiaeresis
ENCODING 239
SWIDTH 444 0
DWIDTH 8 0
BBX 8 6 0 0
BITMAP
3c
66
5a
5a
66
3c
ENDCHAR
STARTCHAR eth
ENCODING 240
SWIDTH 444 0
DWIDTH 8 0
BBX 8 7 0 0
BITMAP
3c
66
42
42
42
66
3c
ENDCHAR
STARTCHAR ntilde
ENCODING 241
SWIDTH 444 0
DWIDTH 8 0
BBX 8 7 0 0
BITMAP
3c
66
42
72
32
06
3c
ENDCHAR
STARTCHAR ograve
ENCODING 242
SWIDTH 444 0
DWIDTH 8 0
BBX 8 9 0 0
BITMAP
80
40
4a
5f
51
59
49
41
7f
ENDCHAR
STARTCHAR oacute
ENCODING 243
SWIDTH 444 0
DWIDTH 8 0
BBX 8 7 0 0
BITMAP
22
77
49
41
41
71
31
ENDCHAR
STARTCHAR ocircumflex
ENCODING 244
SWIDTH 444 0
DWIDTH 8 0
BBX 8 9 0 0
BITMAP
02
02
06
3c
60
4c
48
64
3e
ENDCHAR
STARTCHAR otilde
ENCODING 245
SWIDTH 444 0
DWIDTH 8 0
BBX 8 9 0 0
BITMAP
02
02
36
3c
60
4c
48
64
3e
ENDCHAR
STARTCHAR odiaeresis
ENCODING 246
SWIDTH 444 0
DWIDTH 8 0
BBX 8 9 0 0
BITMAP
c0
60
20
3c
26
02
62
66
3c
ENDCHAR
STARTCHAR division
ENCODING 247
SWIDTH 444 0
DWIDTH 8 0
BBX 8 9 0 0
BITMAP
02
01
25
5b
43
43
43
76
34
ENDCHAR
STARTCHAR oslash
ENCODING 248
SWIDTH 444 0
DWIDTH 8 0
BBX 8 8 0 0
BITMAP
01
03
3e
60
43
43
6d
36
ENDCHAR
STARTCHAR ugrave
ENCODING 249
SWIDTH 444 0
DWIDTH 8 0
BBX 8 9 0 0
BITMAP
01
01
03
2e
78
4c
46
73
31
ENDCHAR
STARTCHAR uacute
ENCODING 250
SWIDTH 444 0
DWIDTH 8 0
BBX 8 10 0 0
BITMAP
00
ca
da
6a
0a
0a
0a
0a
0a
14
ENDCHAR
STARTCHAR ucircumflex
ENCODING 251
SWIDTH 444 0
DWIDTH 8 0
BBX 8 10 0 0
BITMAP
00
00
60
e0
88
8b
96
90
60
00
ENDCHAR
ENDFONT
